<?xml version="1.0" encoding="UTF-8" standalone="no"?>
<svg
   xmlns:dc="http://purl.org/dc/elements/1.1/"
   xmlns:cc="http://creativecommons.org/ns#"
   xmlns:rdf="http://www.w3.org/1999/02/22-rdf-syntax-ns#"
   xmlns:svg="http://www.w3.org/2000/svg"
   xmlns="http://www.w3.org/2000/svg"
   xmlns:sodipodi="http://sodipodi.sourceforge.net/DTD/sodipodi-0.dtd"
   xmlns:inkscape="http://www.inkscape.org/namespaces/inkscape"
   inkscape:export-ydpi="100"
   inkscape:export-xdpi="100"
   inkscape:export-filename="C:\Users\engelen\projects_wdir\imod-logo\components\iMOD-coupler.png"
   inkscape:version="1.0 (4035a4fb49, 2020-05-01)"
   sodipodi:docname="iMOD-coupler.svg"
   id="svg6"
   preserveAspectRatio="xMidYMid meet"
   viewBox="0 0 1107.000000 1109.000000"
   height="1109.000000pt"
   width="1107.000000pt"
   version="1.0">
  <metadata
     id="metadata12">
    <rdf:RDF>
      <cc:Work
         rdf:about="">
        <dc:format>image/svg+xml</dc:format>
        <dc:type
           rdf:resource="http://purl.org/dc/dcmitype/StillImage" />
        <dc:title></dc:title>
      </cc:Work>
    </rdf:RDF>
  </metadata>
  <defs
     id="defs10" />
  <sodipodi:namedview
     inkscape:current-layer="svg6"
     inkscape:window-maximized="1"
     inkscape:window-y="-8"
     inkscape:window-x="3832"
     inkscape:cy="781.94624"
     inkscape:cx="887.53068"
     inkscape:zoom="0.45254834"
     showgrid="false"
     id="namedview8"
     inkscape:window-height="1057"
     inkscape:window-width="1827"
     inkscape:pageshadow="2"
     inkscape:pageopacity="0"
     guidetolerance="10"
     gridtolerance="10"
     objecttolerance="10"
     borderopacity="1"
     bordercolor="#666666"
     pagecolor="#ffffff"
     inkscape:document-rotation="0" />
  <g
     style="fill:#080c80;fill-opacity:1"
     id="g4"
     stroke="none"
     fill="#000000"
     transform="translate(0.000000,1109.000000) scale(0.100000,-0.100000)">
    <path
       sodipodi:nodetypes="ccccccccccsccc"
       style="fill:#080c80;fill-opacity:1"
       id="path2"
       d="m 955,10675 c -233,-42 -430,-231 -480,-460 -14,-63 -15,-556 -13,-4705 l 3,-4635 23,-65 c 77,-213 256,-367 469,-405 66,-12 802,-14 4643,-15 3114,0 4585,3 4629,11 141,22 245,76 348,179 71,72 131,180 158,285 13,52 15,592 15,4675 0,4083 -2,4623 -15,4675 -62,246 -256,424 -506,464 -102,17 -9182,13 -9274,-4 z" />
  </g>
  <path
     id="path34"
     d="m 775.03837,501.07833 c -16.8337,0 -32.47308,14.672 -48.3228,45.38626 -16.83369,32.68317 -31.19611,76.66404 -54.2315,166.24773 -20.08253,78.36094 -27.46419,98.44298 -35.63479,97.26159 -6.3007,-0.88602 -14.56708,-27.05145 -26.97098,-84.9364 -1.96989,-9.25357 -4.6295,-21.85644 -5.90894,-28.05834 -23.92184,-111.83189 -50.22513,-166.77636 -89.50398,-187.05563 -12.4039,-6.49718 -17.01434,-6.17671 -23.70828,1.3042 -7.08791,7.77711 -12.89736,24.78651 -18.70533,54.81181 -0.78697,4.03606 -4.53472,25.80488 -8.37403,48.25004 -7.87562,47.05618 -11.33382,64.87862 -16.74807,87.61893 -17.12942,70.78083 -41.83872,112.72349 -75.11237,127.09635 -2.95335,1.27942 -5.51026,2.641 -5.51026,2.93627 0,0.98501 10.05859,2.96254 17.83571,3.55275 8.66284,0.6905 20.85589,-1.47001 28.92825,-5.11135 17.81864,-7.87559 35.55065,-27.37235 48.93901,-54.05056 13.3886,-26.57975 23.81518,-59.28718 38.67997,-120.7162 6.30045,-25.89048 10.73914,-39.67232 14.28297,-43.60988 l 2.75513,-3.15381 3.33496,3.5525 c 6.20195,6.59592 10.25608,19.39677 27.87722,88.9964 4.13455,16.24325 8.36784,32.38106 9.35279,35.92481 0.98495,3.54407 3.21841,11.25073 4.8938,17.25571 3.34684,11.81316 10.85868,35.40828 13.81179,43.28365 12.10866,32.6834 20.7715,50.99706 32.19095,68.22467 6.00495,9.05687 15.53939,19.90186 17.50929,19.90186 0.78697,0 5.32638,-2.6499 10.1504,-5.80024 25.59526,-17.12915 48.81155,-52.48359 66.62944,-101.213 1.96743,-5.31599 3.95415,-10.51765 4.35011,-11.60037 0.98247,-2.36332 12.1052,-38.20501 14.17433,-45.78522 2.95286,-10.3365 5.78644,-21.27652 12.57887,-48.2502 13.97907,-54.93138 18.52121,-68.52786 24.72341,-73.15464 2.46237,-1.76944 2.64426,-1.75707 6.09009,-0.17323 4.42979,2.06641 16.95149,15.36542 24.43313,25.70192 21.36247,29.92685 42.79917,71.5529 60.32182,117.52623 35.93177,94.30892 47.35097,190.00547 32.1912,269.05556 -0.98248,5.2176 -1.55413,9.5339 -1.16065,9.5339 1.47742,0 15.64309,-15.7301 19.28542,-21.2431 16.24346,-25.39822 23.93569,-61.05854 24.03444,-111.36329 0,-71.27313 -15.54782,-153.15292 -44.58867,-234.07324 -31.20673,-86.8273 -64.591,-141.29117 -93.23787,-152.21839 -3.05185,-1.18046 -7.50193,-1.84863 -11.63648,-1.84863 z"
     style="fill:#ffffff;fill-opacity:1;fill-rule:evenodd;stroke-width:2.14196" />
  <path
     sodipodi:nodetypes="ccccccccccccccc"
     id="path32"
     d="m 364.27008,388.50356 c -0.95277,17.95994 -13.87909,31.75762 -28.96016,58.41553 -23.33114,41.83874 -32.2016,58.99042 -42.34136,81.23885 -24.31557,53.55317 -37.99371,97.65058 -43.21121,139.09532 -2.06889,15.75096 -2.07879,43.52078 -0.12374,57.20444 6.1037,41.83841 25.79399,73.70219 60.24932,97.6241 6.79143,4.62679 7.39255,4.92077 6.99634,2.75512 -8.76132,-39.57431 -11.02027,-58.85013 -11.02027,-92.91174 -0.099,-35.24257 2.37328,-54.82738 10.83912,-86.13238 9.74603,-35.83351 18.68331,-56.42435 64.85333,-148.6659 31.65913,-53.67689 32.20852,-56.34071 39.73743,-77.15503 6.65136,-17.52958 13.29233,-35.37469 16.37981,-54.90857 -2.53438,-3.90811 -56.05834,-24.32968 -74.43652,-34.61966 1.14828,17.8622 3.72219,32.43437 1.02702,58.05992 z"
     style="fill:#ffffff;fill-opacity:1;fill-rule:evenodd;stroke-width:2.14196" />
  <path
     sodipodi:nodetypes="ccccccccccc"
     id="rect24"
     d="m 454.80604,91.401649 c -14.38914,-6.505106 -27.76215,25.942471 -42.7534,62.349391 -7.71797,-2.81972 -18.90653,-6.65161 -27.34961,-9.8178 -6.18585,24.83775 -43.87049,107.84677 -17.23607,147.03282 13.29778,7.22279 80.22865,38.19369 95.14639,45.55851 43.46117,-15.30998 69.5588,-94.55987 79.63447,-133.37942 -1.21757,-1.44277 -6.34177,-3.0276 -27.57729,-11.95522 16.11181,-52.64222 24.32301,-71.09241 7.91423,-77.02832 -15.92027,-7.26758 -31.1815,55.90243 -35.2381,67.28748 -6.59172,-2.85758 -35.45563,-13.34207 -42.51235,-16.34196 13.49898,-35.64692 25.19312,-68.706743 9.97173,-73.705481 z"
     style="fill:#ffffff;fill-opacity:1;fill-rule:evenodd;stroke-width:3.22382" />
</svg>
