<?xml version="1.0" encoding="UTF-8" standalone="no"?>
<svg
   version="1.0"
   width="1107.000000pt"
   height="1109.000000pt"
   viewBox="0 0 1107.000000 1109.000000"
   preserveAspectRatio="xMidYMid meet"
   id="svg6"
   sodipodi:docname="iMOD-roadmap.svg"
   inkscape:version="1.4.2 (ebf0e94, 2025-05-08)"
   inkscape:export-filename="C:\Users\engelen\OneDrive - Stichting Deltares\Projects\DSD\DSD_2021\images\iMOD_logo.png"
   inkscape:export-xdpi="100"
   inkscape:export-ydpi="100"
   xmlns:inkscape="http://www.inkscape.org/namespaces/inkscape"
   xmlns:sodipodi="http://sodipodi.sourceforge.net/DTD/sodipodi-0.dtd"
   xmlns="http://www.w3.org/2000/svg"
   xmlns:svg="http://www.w3.org/2000/svg"
   xmlns:rdf="http://www.w3.org/1999/02/22-rdf-syntax-ns#"
   xmlns:cc="http://creativecommons.org/ns#"
   xmlns:dc="http://purl.org/dc/elements/1.1/">
  <metadata
     id="metadata12">
    <rdf:RDF>
      <cc:Work
         rdf:about="">
        <dc:format>image/svg+xml</dc:format>
        <dc:type
           rdf:resource="http://purl.org/dc/dcmitype/StillImage" />
      </cc:Work>
    </rdf:RDF>
  </metadata>
  <defs
     id="defs10">
    <inkscape:path-effect
       effect="perspective-envelope"
       up_left_point="245.61118,120.94329"
       up_right_point="884.62666,-7.8840951"
       down_left_point="245.61118,974.46413"
       down_right_point="877.66301,831.70946"
       id="path-effect2"
       is_visible="true"
       lpeversion="1"
       deform_type="envelope_deformation"
       horizontal_mirror="false"
       vertical_mirror="false"
       overflow_perspective="false" />
    <inkscape:path-effect
       effect="envelope"
       id="path-effect1"
       is_visible="true"
       lpeversion="1"
       yy="false"
       xx="false"
       bendpath1="M 245.61118,120.94329 H 867.21755"
       bendpath2="M 867.21755,120.94329 V 974.46413"
       bendpath3="M 245.61118,974.46413 H 867.21755"
       bendpath4="M 245.61118,120.94329 V 974.46413" />
    <inkscape:path-effect
       down_right_point="867.21755,974.46413"
       down_left_point="245.61118,974.46413"
       up_right_point="867.21755,120.94329"
       up_left_point="245.61118,120.94329"
       effect="perspective-envelope"
       id="path-effect5"
       deform_type="perspective"
       overflow_perspective="false"
       horizontal_mirror="false" />
    <inkscape:path-effect
       effect="perspective-envelope"
       up_left_point="246.04,120.94329"
       up_right_point="867.21755,120.94329"
       down_left_point="245.61118,974.46413"
       down_right_point="867.21755,974.46413"
       id="path-effect4"
       is_visible="true"
       lpeversion="1"
       deform_type="perspective"
       horizontal_mirror="false"
       vertical_mirror="false"
       overflow_perspective="false" />
  </defs>
  <sodipodi:namedview
     inkscape:document-rotation="0"
     pagecolor="#ffffff"
     bordercolor="#666666"
     borderopacity="1"
     objecttolerance="10"
     gridtolerance="10"
     guidetolerance="10"
     inkscape:pageopacity="0"
     inkscape:pageshadow="2"
     inkscape:window-width="1920"
     inkscape:window-height="1009"
     id="namedview8"
     showgrid="false"
     inkscape:zoom="0.32"
     inkscape:cx="1404.6875"
     inkscape:cy="417.1875"
     inkscape:window-x="1912"
     inkscape:window-y="-8"
     inkscape:window-maximized="1"
     inkscape:current-layer="svg6"
     inkscape:showpageshadow="2"
     inkscape:pagecheckerboard="0"
     inkscape:deskcolor="#d1d1d1"
     inkscape:document-units="pt" />
  <g
     transform="translate(0.000000,1109.000000) scale(0.100000,-0.100000)"
     fill="#000000"
     stroke="none"
     id="g4"
     style="fill:#080c80;fill-opacity:1">
    <path
       d="m 955,10675 c -233,-42 -430,-231 -480,-460 -14,-63 -15,-556 -13,-4705 l 3,-4635 23,-65 c 77,-213 256,-367 469,-405 66,-12 802,-14 4643,-15 3114,0 4585,3 4629,11 141,22 245,76 348,179 71,72 131,180 158,285 13,52 15,592 15,4675 0,4083 -2,4623 -15,4675 -62,246 -256,424 -506,464 -102,17 -9182,13 -9274,-4 z"
       id="path2"
       style="fill:#080c80;fill-opacity:1"
       sodipodi:nodetypes="ccccccccccsccc" />
  </g>
  <path
     fill-rule="evenodd"
     d="m 973.70756,208.93698 a 24.545549,24.545549 0 0 0 -29.35648,-24.05465 l -240.64456,48.1093 -240.64456,-48.1093 a 24.545549,24.545549 0 0 0 -9.62184,0 l -245.45551,49.0911 A 24.545549,24.545549 0 0 0 188.25,258.02808 v 687.27537 a 24.545549,24.545549 0 0 0 29.35648,24.05465 l 240.64456,-48.1093 240.64456,48.1093 a 24.545549,24.545549 0 0 0 9.62184,0 L 953.97295,920.267 a 24.545549,24.545549 0 0 0 19.73461,-24.05465 z M 433.70548,876.08499 V 238.88254 l 24.54556,-4.90911 24.54553,4.90911 v 637.20245 l -19.73461,-3.92729 a 24.545549,24.545549 0 0 0 -9.62184,0 z m 245.45551,39.2729 V 278.15544 l 19.73461,3.92729 a 24.545549,24.545549 0 0 0 9.62184,0 l 19.73464,-3.92729 v 637.20245 l -24.54556,4.90911 z"
     id="path1"
     style="fill:#f2f2f2;stroke-width:49.0911" />
  <path
     id="path835"
     style="fill:#080c80;fill-opacity:1;fill-rule:evenodd;stroke:#15aae4;stroke-width:0;stroke-miterlimit:4;stroke-dasharray:none"
     d="m 839.01558,838.59936 c 1.84797,-6.37633 5.2051,-30.77103 6.74354,-48.99881 6.55643,-77.58284 -15.38815,-169.36993 -58.35947,-243.90981 -16.41357,-28.4784 -32.13056,-48.54006 -46.59627,-59.47226 -9.84013,-7.44033 -14.5991,-6.32992 -19.92555,4.65479 -2.99469,6.1784 -9.52167,28.83967 -19.83714,68.91297 -22.55354,87.81897 -36.45134,126.03142 -59.78243,164.28806 -13.57565,22.2938 -37.05103,47.6777 -42.27866,45.69083 -5.48397,-2.085 -18.1571,-17.84973 -27.18662,-33.8214 -15.96388,-28.2399 -25.27417,-53.90076 -44.72223,-123.25076 -16.98519,-60.51995 -19.25003,-66.79193 -25.65499,-71.05807 -5.95028,-3.96452 -8.56423,2.75047 -22.51244,57.88287 -20.57355,81.52283 -34.75255,116.59234 -58.80942,145.37983 -15.75266,18.87559 -33.95641,29.2551 -53.56059,30.52437 -4.91845,0.31792 -9.07222,0.47956 -9.23059,0.35938 -0.15845,-0.1201 3.71972,-3.13437 8.61836,-6.69764 20.86092,-15.16474 39.13031,-43.53358 52.73928,-81.87592 10.98406,-30.90353 17.45254,-59.50127 30.53629,-134.93843 4.55478,-26.217 10.04305,-54.74113 12.19408,-63.39152 4.53547,-18.23042 11.0114,-32.12592 17.22454,-36.96364 3.95467,-3.0784 4.61169,-3.23813 10.59741,-2.57693 13.34714,1.47233 29.87793,11.90215 41.07234,25.91005 8.43581,10.55362 19.31905,31.13631 26.30447,49.74792 9.61208,25.6141 15.0524,45.54771 29.65676,108.68474 14.48226,62.66799 21.29944,75.67811 31.14019,59.43104 5.82233,-9.60651 12.71132,-32.67143 32.90889,-110.05918 17.78023,-67.94411 28.82089,-102.34791 42.74258,-133.25591 9.7652,-21.65488 14.53005,-29.85081 24.09055,-41.44353 9.39686,-11.3868 15.59039,-15.67445 25.60838,-17.73214 10.67966,-2.19368 17.51759,-0.12317 29.48226,8.92295 37.6424,28.43067 82.88867,129.87368 99.28078,222.59121 6.14656,34.80727 7.50179,51.50291 7.1688,88.27682 -0.23598,26.00127 -0.88762,38.02998 -2.6037,48.02458 -3.03974,17.71113 -8.30218,35.52621 -14.16866,47.96703 -4.36564,9.2627 -16.25738,27.34603 -21.53197,32.74154 -1.86241,1.90548 -2.03824,1.83436 -1.34877,-0.54503 z M 394.17883,219.88716 c -22.95417,-1.29327 -41.87283,-15.95228 -47.83174,-37.06194 -4.21832,-14.94041 -1.48521,-35.62819 6.73647,-50.95403 2.1028,-3.9181 7.31033,-11.14746 11.57253,-16.06482 25.77838,-29.711496 66.13121,-38.540057 92.37801,-20.274023 13.28861,9.240063 19.08118,18.891903 21.54962,35.907873 4.35407,30.02717 -16.9287,65.57321 -48.48027,81.00612 -8.92222,4.36742 -26.3495,7.97826 -35.92462,7.44078 z m -93.27157,556.84457 c -41.46784,-21.14916 -59.08096,-59.00202 -54.62228,-117.39484 2.17908,-28.5015 7.85141,-54.60545 19.59288,-90.12628 13.38642,-40.43656 28.90935,-76.17133 58.03742,-133.5313 28.67999,-56.32941 40.00944,-82.00595 47.7557,-108.32057 3.2883,-11.16278 3.69017,-14.59497 3.82452,-32.67155 0.14231,-19.12725 -0.0511,-20.69187 -3.65476,-29.50249 -2.09317,-5.11808 -6.13684,-12.33703 -8.98585,-16.04216 -2.84943,-3.70576 -4.94699,-6.78632 -4.66108,-6.84513 2.13998,-0.44013 25.96648,2.96127 31.14689,4.44508 9.06806,2.59602 19.2718,8.20694 25.2017,13.85832 19.16534,18.2573 18.41768,54.45731 -2.22968,109.37276 -3.7021,9.85969 -18.88235,44.18146 -33.72467,76.28909 -32.90848,71.35349 -49.06465,107.84531 -56.8321,128.21546 -6.61121,17.35145 -15.4833,48.29654 -18.54458,64.67413 -7.23999,38.77027 -5.98998,89.77842 3.15553,129.30108 1.40821,6.08745 2.38961,11.27227 2.18107,11.52234 -0.20845,0.25005 -3.64666,-1.20946 -7.64071,-3.24394 z"
     transform="matrix(0.33656955,0,0,0.33656955,125.87373,213.09676)"
     inkscape:path-effect="#path-effect2"
     inkscape:original-d="m 829.19472,972.59326 c 1.77158,-6.06273 4.89021,-30.1134 6.26413,-48.30853 5.84867,-77.45862 -16.42422,-175.76593 -59.14503,-261.05158 -16.29284,-32.52623 -31.8344,-56.32854 -46.08257,-70.57668 -9.68916,-9.68917 -14.3454,-9.59913 -19.4979,0.37704 -2.89746,5.61006 -9.1594,27.15288 -19.03841,65.49832 -21.63255,83.96591 -35.0716,119.55787 -57.79163,153.05531 -13.22905,19.50428 -36.18132,39.89192 -41.32864,36.71058 -5.39926,-3.337 -17.9217,-22.09703 -26.85985,-40.23905 -15.79205,-32.05368 -25.03126,-60.00474 -44.36556,-134.2172 -16.85528,-64.6975 -19.0947,-71.50818 -25.38198,-77.19418 -5.84013,-5.28171 -8.37897,0.91512 -21.87622,53.39612 -19.94132,77.5375 -33.76114,109.68712 -57.303,133.30696 -15.42316,15.47424 -33.27423,21.85959 -52.5171,18.78557 -4.82756,-0.77122 -8.90465,-1.52956 -9.06027,-1.68522 -0.1557,-0.15559 3.64666,-2.32045 8.44962,-4.81065 20.45001,-10.60285 38.32441,-35.05601 51.59404,-70.58364 10.70138,-28.65161 16.97459,-55.98839 29.60452,-129.0082 4.39132,-25.38785 9.68708,-52.90283 11.76852,-61.14442 4.38732,-17.37171 10.68304,-29.9702 16.74634,-33.51136 3.85901,-2.25379 4.50117,-2.27418 10.35801,-0.32885 13.06082,4.3381 29.26878,18.38921 40.27294,34.91358 8.29554,12.45699 19.02861,35.56496 25.94233,55.8533 9.51939,27.9348 14.93282,49.23978 29.52154,116.18621 14.49212,66.50293 21.24642,81.16544 30.83462,66.9375 5.67127,-8.4156 12.32252,-30.20498 31.75097,-104.0162 17.07327,-64.86328 27.70338,-97.28966 41.16558,-125.57255 9.43714,-19.82657 14.05406,-27.10288 23.34421,-36.79055 9.1289,-9.51942 15.16451,-12.53397 24.9569,-12.46489 10.43918,0.0736 17.1459,3.64732 28.91887,15.40941 37.06262,37.02831 82.18445,150.10133 99.01441,248.12525 6.32223,36.82301 7.79057,54.13144 7.76306,91.50905 -0.02,26.42797 -0.56317,38.53062 -2.17087,48.31875 -2.84871,17.34323 -7.88672,34.28084 -13.56471,45.60383 -4.22644,8.42846 -15.79913,24.10323 -20.95389,28.38133 -1.82024,1.51063 -1.99402,1.39787 -1.33298,-0.86436 z M 390.37054,250.38027 c -22.37521,-6.0259 -40.83221,-24.62063 -46.66463,-47.01276 -4.12675,-15.84368 -1.49076,-36.03175 6.49337,-49.73077 2.04159,-3.50303 7.1003,-9.69827 11.24158,-13.76722 25.03789,-24.60095 64.2869,-25.30436 89.87879,-1.61077 12.96295,12.00141 18.63104,22.89648 21.08454,40.52849 4.33048,31.12005 -16.31155,62.51329 -47.03006,71.52529 -8.68793,2.5488 -25.66896,2.58166 -35.00359,0.0677 z m -90.50705,538.54651 c -40.69039,-30.3065 -57.96231,-72.024 -53.59233,-129.44378 2.13338,-28.03125 7.68471,-52.91575 19.16915,-85.92722 13.08152,-37.60249 28.24195,-70.07109 56.6652,-121.35792 27.9496,-50.43212 38.97546,-73.81315 46.49648,-98.59824 3.19125,-10.51674 3.57784,-13.87772 3.67952,-31.99288 0.10768,-19.16816 -0.0835,-20.77866 -3.61216,-30.36823 -2.04921,-5.56963 -6.0031,-13.64995 -8.78635,-17.95627 -2.78334,-4.30633 -4.83255,-7.82968 -4.55392,-7.82968 2.08553,0 25.32015,8.33444 30.37387,10.89532 8.84709,4.48319 18.8089,12.23283 24.60418,19.14064 18.73727,22.33398 18.09293,58.571 -1.94589,109.42807 -3.59573,9.1258 -18.36003,40.39259 -32.80957,69.48176 -32.076,64.57404 -47.84144,97.69687 -55.42311,116.44261 -6.45596,15.96234 -15.11802,45.0471 -18.10419,60.78875 -7.06716,37.25542 -5.8089,88.61132 3.19026,130.21044 1.38654,6.40912 2.35372,11.82013 2.14927,12.02455 -0.20437,0.20441 -3.57957,-2.01764 -7.50041,-4.93792 z" />
</svg>
