<?xml version="1.0" encoding="UTF-8" standalone="no"?>
<svg
   xmlns:dc="http://purl.org/dc/elements/1.1/"
   xmlns:cc="http://creativecommons.org/ns#"
   xmlns:rdf="http://www.w3.org/1999/02/22-rdf-syntax-ns#"
   xmlns:svg="http://www.w3.org/2000/svg"
   xmlns="http://www.w3.org/2000/svg"
   xmlns:sodipodi="http://sodipodi.sourceforge.net/DTD/sodipodi-0.dtd"
   xmlns:inkscape="http://www.inkscape.org/namespaces/inkscape"
   version="1.0"
   width="1107.000000pt"
   height="1109.000000pt"
   viewBox="0 0 1107.000000 1109.000000"
   preserveAspectRatio="xMidYMid meet"
   id="svg6"
   sodipodi:docname="iMOD-Qgis_4.svg"
   inkscape:version="1.0 (4035a4fb49, 2020-05-01)"
   inkscape:export-filename="C:\Users\engelen\OneDrive - Stichting Deltares\Projects\DSD\DSD_2021\images\iMOD_logo.png"
   inkscape:export-xdpi="100"
   inkscape:export-ydpi="100">
  <metadata
     id="metadata12">
    <rdf:RDF>
      <cc:Work
         rdf:about="">
        <dc:format>image/svg+xml</dc:format>
        <dc:type
           rdf:resource="http://purl.org/dc/dcmitype/StillImage" />
        <dc:title></dc:title>
      </cc:Work>
    </rdf:RDF>
  </metadata>
  <defs
     id="defs10" />
  <sodipodi:namedview
     inkscape:document-rotation="0"
     pagecolor="#ffffff"
     bordercolor="#666666"
     borderopacity="1"
     objecttolerance="10"
     gridtolerance="10"
     guidetolerance="10"
     inkscape:pageopacity="0"
     inkscape:pageshadow="2"
     inkscape:window-width="1827"
     inkscape:window-height="1057"
     id="namedview8"
     showgrid="false"
     inkscape:zoom="0.32"
     inkscape:cx="728.66314"
     inkscape:cy="758.88385"
     inkscape:window-x="1912"
     inkscape:window-y="-8"
     inkscape:window-maximized="1"
     inkscape:current-layer="svg6" />
  <g
     transform="matrix(0.1,0,0,-0.1,-7.0342095,1107.5983)"
     fill="#000000"
     stroke="none"
     id="g4"
     style="fill:#080c80;fill-opacity:1">
    <path
       d="m 955,10675 c -233,-42 -430,-231 -480,-460 -14,-63 -15,-556 -13,-4705 l 3,-4635 23,-65 c 77,-213 256,-367 469,-405 66,-12 802,-14 4643,-15 3114,0 4585,3 4629,11 141,22 245,76 348,179 71,72 131,180 158,285 13,52 15,592 15,4675 0,4083 -2,4623 -15,4675 -62,246 -256,424 -506,464 -102,17 -9182,13 -9274,-4 z"
       id="path2"
       style="fill:#080c80;fill-opacity:1"
       sodipodi:nodetypes="ccccccccccsccc" />
  </g>
  <path
     sodipodi:nodetypes="sssssccssscsssssss"
     style="fill:#ffffff;fill-opacity:1;fill-rule:evenodd;stroke:#15aae4;stroke-width:0;stroke-miterlimit:4;stroke-dasharray:none"
     d="m 291.33334,888.94317 c -42.53953,-31.68376 -60.59635,-75.29706 -56.02778,-135.32623 2.23033,-29.30511 8.03394,-55.32045 20.04027,-89.83209 13.67599,-39.3113 29.52537,-73.2554 59.24029,-126.8729 29.21975,-52.72396 40.74666,-77.16752 48.60946,-103.07894 3.33628,-10.99467 3.74044,-14.50838 3.84673,-33.44676 0.11259,-20.03924 -0.0873,-21.72292 -3.77631,-31.74829 -2.14232,-5.82272 -6.27589,-14.27026 -9.18562,-18.77228 -2.90983,-4.50202 -5.05216,-8.18548 -4.76088,-8.18548 2.18031,0 26.47081,8.71319 31.75419,11.39044 9.24914,4.68692 19.66364,12.78875 25.72229,20.01047 19.58876,23.34893 18.91513,61.2327 -2.03432,114.40091 -3.75914,9.54052 -19.1944,42.22819 -34.30057,72.63929 -33.53367,67.50853 -50.01554,102.1366 -57.94176,121.73422 -6.74935,16.68773 -15.80505,47.09423 -18.92692,63.55123 -7.3883,38.94845 -6.07287,92.63817 3.33525,136.12772 1.44955,6.70039 2.24694,12.57099 2.24694,12.57099 0.0782,0.29189 -3.74224,-2.10933 -7.84126,-5.1623 z"
     id="path831" />
  <path
     style="fill:#ffffff;fill-opacity:1;fill-rule:evenodd;stroke:#15aae4;stroke-width:0;stroke-miterlimit:4;stroke-dasharray:none"
     d="m 852.1674,1018.1731 c 1.76731,-6.0482 4.87845,-30.04097 6.24907,-48.19233 5.83459,-77.27231 -16.38473,-175.34317 -59.00278,-260.42368 -16.25365,-32.44801 -31.75782,-56.19307 -45.97172,-70.40694 -9.66587,-9.66585 -14.3109,-9.57603 -19.45101,0.37615 -2.89049,5.59657 -9.13736,27.08756 -18.99262,65.34077 -21.58052,83.76394 -34.98724,119.2703 -57.65262,152.68717 -13.19724,19.45737 -36.09429,39.79597 -41.22924,36.62229 -5.38627,-3.32898 -17.87859,-22.04388 -26.79525,-40.14226 -15.75406,-31.97659 -24.97105,-59.86042 -44.25885,-133.89438 -16.81473,-64.54189 -19.04876,-71.33618 -25.32092,-77.0085 -5.82608,-5.26902 -8.35883,0.91291 -21.82361,53.26767 -19.89335,77.35101 -33.67993,109.4233 -57.16516,132.98633 -15.38607,15.43702 -33.19421,21.80702 -52.39078,18.74039 -4.81597,-0.76938 -8.88325,-1.52589 -9.03848,-1.68116 -0.15534,-0.15523 3.63789,-2.31488 8.4293,-4.79909 20.40081,-10.57736 38.23221,-34.97169 51.46993,-70.41387 10.67565,-28.5827 16.93376,-55.85372 29.53332,-128.69789 4.38075,-25.32679 9.66378,-52.77559 11.74021,-60.99736 4.37677,-17.32993 10.65735,-29.89812 16.70606,-33.43076 3.84973,-2.24836 4.49034,-2.2687 10.3331,-0.32805 13.0294,4.32766 29.19838,18.34497 40.17607,34.8296 8.27558,12.42702 18.98285,35.47942 25.87994,55.71895 9.49649,27.86762 14.8969,49.12134 29.45052,115.90676 14.45726,66.34297 21.19532,80.97021 30.76046,66.7765 5.65763,-8.39536 12.29289,-30.13235 31.6746,-103.76601 17.03221,-64.70727 27.63674,-97.05567 41.06656,-125.27053 9.41445,-19.77888 14.02026,-27.03769 23.28806,-36.70205 9.10695,-9.49653 15.12805,-12.50383 24.89688,-12.43491 10.41407,0.0734 17.10467,3.63854 28.84932,15.37234 36.97347,36.93925 81.98677,149.74031 98.77625,247.52845 6.30702,36.73444 7.77183,54.00124 7.74439,91.28895 -0.02,26.36441 -0.56182,38.43794 -2.16565,48.20252 -2.84186,17.30152 -7.86775,34.19836 -13.53208,45.49414 -4.21629,8.40819 -15.76113,24.04529 -20.9035,28.31309 -1.81586,1.507 -1.98923,1.3944 -1.32977,-0.8623 z"
     id="path835" />
  <g
     transform="matrix(0.89614593,-0.50969557,0.50969557,0.89614593,-74.286563,223.15558)"
     id="g3001">
    <path
       id="path833"
       d="m 356.52985,286.05655 c -34.85201,-9.38602 -63.60092,-38.34948 -72.68561,-73.22785 -6.42789,-24.67837 -2.32203,-56.12366 10.1142,-77.46145 3.18001,-5.45637 11.05954,-15.10619 17.51006,-21.44405 38.99943,-38.318834 100.13434,-39.414488 139.9967,-2.50895 20.19129,18.69358 29.02,35.66393 32.84162,63.12783 6.74523,48.47309 -25.40715,97.37172 -73.25481,111.40897 -13.53247,3.97007 -39.98238,4.02123 -54.52216,0.1055 z"
       style="fill:#ffffff;fill-opacity:1;fill-rule:evenodd;stroke:#15aae4;stroke-width:0;stroke-miterlimit:4;stroke-dasharray:none" />
    <path
       style="fill:#080c80;fill-opacity:1;fill-rule:evenodd;stroke:#15aae4;stroke-width:0;stroke-miterlimit:4;stroke-dasharray:none"
       d="m 360.6944,272.81406 c -30.03884,-8.08975 -54.81739,-33.05327 -62.64748,-63.11483 -5.54014,-21.27022 -2.00133,-48.37279 8.7174,-66.76375 2.74083,-4.70287 9.53218,-13.02 15.09188,-18.48255 33.61344,-33.026891 86.30542,-33.971229 120.66267,-2.1625 17.4028,16.11197 25.01221,30.73863 28.30607,54.40969 5.81369,41.77881 -21.89832,83.92437 -63.13807,96.02301 -11.66359,3.42181 -34.46069,3.46591 -46.99247,0.0911 z"
       id="path833-9" />
    <g
       style="fill:#ffffff;fill-opacity:1;stroke:#ffffff;stroke-opacity:1"
       transform="matrix(0.11172566,0,0,-0.11172566,-1389.0759,1092.3238)"
       id="g390">
      <path
         id="path392"
         style="fill:#ffffff;fill-opacity:1;fill-rule:nonzero;stroke:#ffffff;stroke-opacity:1"
         d="m 15860.8,8775.41 -414,-1245.3 431.2,210.6865 422,-211.7865 -439.2,1246.4"
         sodipodi:nodetypes="ccccc" />
    </g>
  </g>
</svg>
