<?xml version="1.0" encoding="UTF-8" standalone="no"?>
<svg
   xmlns:dc="http://purl.org/dc/elements/1.1/"
   xmlns:cc="http://creativecommons.org/ns#"
   xmlns:rdf="http://www.w3.org/1999/02/22-rdf-syntax-ns#"
   xmlns:svg="http://www.w3.org/2000/svg"
   xmlns="http://www.w3.org/2000/svg"
   xmlns:sodipodi="http://sodipodi.sourceforge.net/DTD/sodipodi-0.dtd"
   xmlns:inkscape="http://www.inkscape.org/namespaces/inkscape"
   inkscape:version="1.0 (4035a4fb49, 2020-05-01)"
   sodipodi:docname="3d-viewer.svg"
   id="svg6"
   preserveAspectRatio="xMidYMid meet"
   viewBox="0 0 30 30.000001"
   height="40"
   width="40"
   version="1.0">
  <metadata
     id="metadata12">
    <rdf:RDF>
      <cc:Work
         rdf:about="">
        <dc:format>image/svg+xml</dc:format>
        <dc:type
           rdf:resource="http://purl.org/dc/dcmitype/StillImage" />
        <dc:title></dc:title>
      </cc:Work>
    </rdf:RDF>
  </metadata>
  <defs
     id="defs10">
    <inkscape:perspective
       sodipodi:type="inkscape:persp3d"
       inkscape:vp_x="-1128.0212 : 1633.3625 : 1"
       inkscape:vp_y="0 : 2699.1682 : 0"
       inkscape:vp_z="3053.1958 : 1531.0583 : 1"
       inkscape:persp3d-origin="1069.6684 : 984.60011 : 1"
       id="perspective2220" />
  </defs>
  <sodipodi:namedview
     units="px"
     inkscape:current-layer="svg6"
     inkscape:window-maximized="1"
     inkscape:window-y="-8"
     inkscape:window-x="1912"
     inkscape:cy="35.654395"
     inkscape:cx="19.207032"
     inkscape:zoom="10.24"
     showgrid="false"
     id="namedview8"
     inkscape:window-height="1057"
     inkscape:window-width="1827"
     inkscape:pageshadow="2"
     inkscape:pageopacity="0"
     guidetolerance="10"
     gridtolerance="10"
     objecttolerance="10"
     borderopacity="1"
     bordercolor="#666666"
     pagecolor="#ffffff"
     inkscape:document-rotation="0" />
  <g
     transform="matrix(1.039782,0,0,1.039782,-0.56556967,-0.410492)"
     id="g846">
    <g
       transform="matrix(0.00268122,0,0,-0.00268122,0.09248,29.775134)"
       fill="#000000"
       stroke="none"
       id="g4"
       style="fill:#080c80;fill-opacity:1">
      <path
         d="m 955,10675 c -233,-42 -430,-231 -480,-460 -14,-63 -15,-556 -13,-4705 l 3,-4635 23,-65 c 77,-213 256,-367 469,-405 66,-12 802,-14 4643,-15 3114,0 4585,3 4629,11 141,22 245,76 348,179 71,72 131,180 158,285 13,52 15,592 15,4675 0,4083 -2,4623 -15,4675 -62,246 -256,424 -506,464 -102,17 -9182,13 -9274,-4 z"
         id="path2"
         style="fill:#080c80;fill-opacity:1"
         sodipodi:nodetypes="ccccccccccsccc" />
    </g>
    <path
       d="M 15.009729,3.6883081 5.4247211,7.7575963 V 20.334014 l 9.5850079,-6.169792 z"
       style="mix-blend-mode:normal;fill:#e9e9ff;fill-opacity:1;fill-rule:evenodd;stroke:none;stroke-width:0.134973;stroke-linejoin:round"
       id="path2340" />
    <path
       d="M 25.467251,6.3280024 V 18.404921 L 15.009729,14.164222 V 3.6883081 Z"
       style="mix-blend-mode:normal;fill:#353564;fill-opacity:1;fill-rule:evenodd;stroke:none;stroke-width:0.134973;stroke-linejoin:round"
       id="path2342" />
    <path
       d="M 25.467251,18.404921 16.561767,26.7537 5.4247211,20.334014 15.009729,14.164222 Z"
       style="mix-blend-mode:normal;fill:#afafde;fill-opacity:1;fill-rule:evenodd;stroke:none;stroke-width:0.134973;stroke-linejoin:round"
       id="path2344" />
    <path
       d="M 25.467251,6.3280024 16.561767,11.796942 5.4247211,7.7575963 15.009729,3.6883081 Z"
       style="mix-blend-mode:normal;fill:#8d8dc0;fill-opacity:1;fill-rule:evenodd;stroke:none;stroke-width:0.134973;stroke-linejoin:round"
       id="path2346" />
    <path
       d="M 16.561767,11.796942 V 26.7537 L 5.4247211,20.334014 V 7.7575963 Z"
       style="mix-blend-mode:normal;fill:#f1f1ff;fill-opacity:1;fill-rule:evenodd;stroke:none;stroke-width:0.134973;stroke-linejoin:round"
       id="path2348" />
    <path
       d="M 25.467251,6.3280024 16.561767,11.796942 V 26.7537 l 8.905484,-8.348779 z"
       style="mix-blend-mode:normal;fill:#c4c4e0;fill-opacity:1;fill-rule:evenodd;stroke:none;stroke-width:0.134973;stroke-linejoin:round"
       id="path2350" />
  </g>
</svg>
