<?xml version="1.0" encoding="UTF-8" standalone="no"?>
<svg
   xmlns:dc="http://purl.org/dc/elements/1.1/"
   xmlns:cc="http://creativecommons.org/ns#"
   xmlns:rdf="http://www.w3.org/1999/02/22-rdf-syntax-ns#"
   xmlns:svg="http://www.w3.org/2000/svg"
   xmlns="http://www.w3.org/2000/svg"
   xmlns:sodipodi="http://sodipodi.sourceforge.net/DTD/sodipodi-0.dtd"
   xmlns:inkscape="http://www.inkscape.org/namespaces/inkscape"
   sodipodi:docname="iMOD-doc-logo.svg"
   inkscape:version="1.0 (4035a4fb49, 2020-05-01)"
   id="svg840"
   version="1.1"
   viewBox="0 0 13.5 15.75"
   height="21mm"
   width="18mm">
  <defs
     id="defs834" />
  <sodipodi:namedview
     inkscape:window-maximized="1"
     inkscape:window-y="-8"
     inkscape:window-x="1912"
     inkscape:window-height="1057"
     inkscape:window-width="1855"
     inkscape:pagecheckerboard="true"
     showgrid="false"
     inkscape:document-rotation="0"
     inkscape:current-layer="layer1"
     inkscape:document-units="mm"
     inkscape:cy="40.893321"
     inkscape:cx="34.77378"
     inkscape:zoom="7.9195959"
     inkscape:pageshadow="2"
     inkscape:pageopacity="0.0"
     borderopacity="1.0"
     bordercolor="#666666"
     pagecolor="#ffffff"
     id="base" />
  <metadata
     id="metadata837">
    <rdf:RDF>
      <cc:Work
         rdf:about="">
        <dc:format>image/svg+xml</dc:format>
        <dc:type
           rdf:resource="http://purl.org/dc/dcmitype/StillImage" />
        <dc:title></dc:title>
      </cc:Work>
    </rdf:RDF>
  </metadata>
  <g
     id="layer1"
     inkscape:groupmode="layer"
     inkscape:label="Layer 1">
    <path
       sodipodi:nodetypes="ccccccccccccccccccccccccccscccccsccccccccccscccsccccccccscccccccccccsc"
       id="rect24"
       style="fill:#ffffff;fill-opacity:1;fill-rule:evenodd;stroke-width:0.0347032"
       d="M 4.3454135,0.57846969 C 4.7010866,0.6980894 4.9833881,0.9803942 5.0982244,1.3328767 5.1588288,1.5162956 5.1684121,1.7922189 5.1205432,1.9756372 5.0120857,2.3935114 4.6883131,2.7204745 4.2736291,2.8321198 4.1125301,2.8751781 3.8206691,2.8703943 3.6675519,2.8225682 3.1747158,2.6694541 2.8668895,2.2898583 2.8142574,1.768313 2.8014269,1.6391223 2.8381919,1.4078559 2.8972123,1.259527 2.9976863,1.0027408 3.2130141,0.76988013 3.4650134,0.64547503 3.6611905,0.54977678 3.7855974,0.52266542 4.026431,0.53063745 c 0.1563106,0.00476 0.2153198,0.0127672 0.3189889,0.0478518 z M 3.4793598,3.1989563 c 0.4099019,0.1642782 0.674662,0.4354187 0.7719537,0.7942806 0.014415,0.05423 0.030318,0.1866093 0.033502,0.3062272 0.0095,0.2488129 -0.016046,0.4370137 -0.1004899,0.7384588 C 4.0551333,5.4956707 3.9291376,5.7779742 3.2927566,7.0475501 2.5447294,8.542009 2.3995909,8.8753481 2.2416884,9.4559072 2.1045444,9.9630998 2.0646494,10.280492 2.0662366,10.85148 c 0,0.551851 0.036686,0.864457 0.1786436,1.505625 0.00634,0.0351 -0.00317,0.03031 -0.1132412,-0.04466 C 1.5734069,11.924878 1.254418,11.408118 1.1555327,10.730266 1.1236307,10.508572 1.1236307,10.058796 1.1569758,9.8036062 1.2415146,9.1321395 1.4632022,8.4176025 1.8571499,7.5499557 2.0214407,7.1895011 2.1649793,6.911979 2.5429775,6.2341309 3.045381,5.3361792 3.2272069,4.9278744 3.3340661,4.4637471 3.3867029,4.2388607 3.3867029,3.8417186 3.3355076,3.6519207 3.2892543,3.482855 3.2158828,3.3233631 3.1201924,3.183008 3.0787229,3.1239955 3.0452369,3.0729586 3.0452369,3.0697684 c 0,-0.014367 0.2998508,0.074965 0.4338236,0.1291906 z m 6.3765746,3.9426922 c 0.4641276,0.1770375 1.0048106,1.0590424 1.5104106,2.465779 0.470507,1.3110425 0.722507,2.6380315 0.722507,3.7927695 -0.0014,0.815015 -0.126009,1.392384 -0.389167,1.803879 -0.05902,0.08931 -0.288684,0.344506 -0.312609,0.344506 -0.0063,0 0.0032,-0.07019 0.01915,-0.154711 0.245622,-1.280734 0.0606,-2.831017 -0.521545,-4.358972 C 10.600779,10.290064 10.253082,9.6154026 9.9069808,9.1305412 9.785772,8.963077 9.5832114,8.7477552 9.5114365,8.7142601 c -0.055821,-0.025518 -0.05902,-0.025518 -0.09889,0.00318 -0.1004741,0.074963 -0.1738472,0.2950614 -0.400328,1.18504 -0.1100257,0.4370139 -0.1563106,0.6140519 -0.2041542,0.7815209 -0.033502,0.12281 -0.21372,0.703367 -0.229671,0.741647 -0.00634,0.01756 -0.03827,0.10208 -0.070188,0.188196 -0.2886835,0.789494 -0.6650897,1.362076 -1.0797768,1.639598 -0.078155,0.05104 -0.1515269,0.0941 -0.1642735,0.0941 -0.031902,0 -0.1865985,-0.175445 -0.2839013,-0.322179 C 6.7952743,12.746253 6.65491,12.449597 6.4587314,11.920075 6.4108942,11.792477 6.2896727,11.409696 6.2354424,11.2183 6.208324,11.12101 6.1716541,10.996606 6.1556872,10.939187 6.1397204,10.881762 6.0711484,10.6202 6.0041604,10.357034 5.7186671,9.2294121 5.6532742,9.0220674 5.5527938,8.9152079 l -0.054237,-0.057425 -0.044653,0.05104 C 5.3964674,8.972611 5.3247116,9.1959108 5.2226361,9.6153826 4.9817993,10.610623 4.8127374,11.140145 4.5958256,11.570778 c -0.2169118,0.432229 -0.5040033,0.748028 -0.7926868,0.875624 -0.1307921,0.05902 -0.3285579,0.0941 -0.4689127,0.08294 -0.1260084,-0.0096 -0.2886851,-0.04148 -0.2886851,-0.05743 0,-0.0048 0.041485,-0.02712 0.089307,-0.04785 0.5390925,-0.23286 0.9394237,-0.912308 1.2169415,-2.059068 C 4.4394961,9.9965713 4.4953167,9.707887 4.6229281,8.945509 4.6851166,8.5818595 4.7457526,8.2293779 4.7585039,8.1639861 4.8525944,7.6775267 4.9467007,7.4016043 5.061545,7.2756031 5.1700024,7.1543895 5.2449517,7.1496042 5.445922,7.2548667 c 0.636381,0.3285586 1.0622338,1.2185358 1.4498026,3.0303863 0.020735,0.100482 0.063804,0.304637 0.09569,0.45456 0.2009623,0.937824 0.3349398,1.36208 0.4370138,1.376433 0.1323919,0.01915 0.2520008,-0.306227 0.5773685,-1.5758 C 8.3790134,9.089051 8.6118746,8.3761082 8.8846118,7.8465904 9.1413949,7.3489688 9.3949924,7.1113222 9.6677281,7.1113222 c 0.066988,0 0.1387597,0.011167 0.1881952,0.030305 z" />
  </g>
</svg>
